# xmcd CD database file
#
# Track frame offsets:
#	150
#	10907
#	26209
#	48070
#	58221
#	73350
#	96428
#	108509
#	126080
#	140667
#	152540
#	168919
#	185743
#	207798
#	229214
#	249361
#
# Disc length: 3506 seconds
#
# Revision: 0
# Processed by: cddbd v1.5.2PL0 Copyright (c) Steve Scherf et al.
# Submitted via: CDex 1.50beta10
#
DISCID=e60db010
DTITLE=Willie Nelson - Country Music
DYEAR=2010
DGENRE=Country
TTITLE0=Man With The Blues
TTITLE1=Seaman's Blues
TTITLE2=Dark As A Dungeon
TTITLE3=Gotta Walk Alone
TTITLE4=Satan Your Kingdom Must Come D
TTITLE5=My Baby's Gone
TTITLE6=Freight Train Boogie
TTITLE7=Satisfied Mind
TTITLE8=You Done Me Wrong
TTITLE9=Pistol Packin' Mama
TTITLE10=Ocean of Diamonds
TTITLE11=Drinking Champagne
TTITLE12=I Am A Pilgram
TTITLE13=House of Gold
TTITLE14=Nobody's Fault But Mine
TTITLE15=Cry, Cry, Darlin (Bonus Track)
EXTD=YEAR: 2010
EXTT0=
EXTT1=
EXTT2=
EXTT3=
EXTT4=
EXTT5=
EXTT6=
EXTT7=
EXTT8=
EXTT9=
EXTT10=
EXTT11=
EXTT12=
EXTT13=
EXTT14=
EXTT15=
PLAYORDER=
